<svg width="24" height="24" viewBox="0 0 24 24" fill="none" xmlns="http://www.w3.org/2000/svg">
<path d="M3.92875 18.0393L4.03605 17.5955L3.77098 17.2238C2.65299 15.6558 2 13.7559 2 11.7069C2 6.37122 6.45152 2 12 2C17.5485 2 22 6.37122 22 11.7069C22 17.0426 17.5485 21.4138 12 21.4138C10.3925 21.4138 8.87699 21.0463 7.53483 20.395L7.10844 20.188L6.6783 20.3871L3.21862 21.9878C3.1876 22.0022 3.17173 22.0005 3.16236 21.9989C3.14793 21.9964 3.1232 21.9875 3.09587 21.9635C3.04165 21.9158 3.00953 21.8413 3.03295 21.7444L3.92875 18.0393Z" stroke="currentColor" stroke-width="1.8"/>
</svg>
