<svg width="24" height="24" viewBox="0 0 24 24" fill="currentColor" xmlns="http://www.w3.org/2000/svg">
<path fill-rule="evenodd" clip-rule="evenodd" d="M9.95055 1.79224C10.6485 1.45282 11.2919 1.25 12 1.25C12.7081 1.25 13.3515 1.45282 14.0494 1.79224C14.7241 2.12034 15.5036 2.60409 16.4771 3.20831L18.5437 4.49091L18.5453 4.49189C19.4657 5.06314 20.2029 5.52065 20.7711 5.95581C21.3599 6.40669 21.8121 6.86589 22.1387 7.46263C22.4646 8.05812 22.6114 8.69174 22.6818 9.4407C22.75 10.1665 22.75 11.0541 22.75 12.1672V13.7799C22.75 15.6838 22.75 17.1866 22.5973 18.3616C22.4406 19.567 22.1114 20.5401 21.3676 21.3094C20.6204 22.0824 19.6695 22.4277 18.4924 22.5914C17.3515 22.75 15.8944 22.75 14.0581 22.75H9.94185C8.10556 22.75 6.64849 22.75 5.50761 22.5914C4.33046 22.4277 3.37958 22.0824 2.63236 21.3094C1.88856 20.5401 1.55937 19.567 1.4027 18.3616C1.24998 17.1866 1.24999 15.6837 1.25 13.78V13.7799V12.1672C1.24999 11.0541 1.24999 10.1665 1.31819 9.4407C1.38857 8.69174 1.53535 8.05812 1.86131 7.46263C2.18795 6.86589 2.64015 6.40669 3.2289 5.95581C3.79736 5.52046 4.53488 5.06274 5.45589 4.49114L5.45628 4.4909L7.52286 3.20832C8.49642 2.60409 9.27585 2.12035 9.95055 1.79224ZM8 18.25C8 17.6977 8.35818 17.25 8.8 17.25H15.2C15.6418 17.25 16 17.6977 16 18.25C16 18.8023 15.6418 19.25 15.2 19.25H8.8C8.35818 19.25 8 18.8023 8 18.25Z"/>
</svg>