<svg width="24" height="22" viewBox="0 0 24 22" fill="none" xmlns="http://www.w3.org/2000/svg">
<g clip-path="url(#clip0_31_17917)">
<path fill-rule="evenodd" clip-rule="evenodd" d="M4.883 2.22157C3.03111 3.11297 1.67441 5.23319 1.67441 7.7615C1.67441 10.3445 2.6782 12.3355 4.11716 14.0418C5.30313 15.448 6.7388 16.6136 8.13893 17.7501C8.14763 17.7572 8.15632 17.7643 8.16502 17.7713C8.48876 18.0342 8.81052 18.2955 9.12675 18.5581C9.71395 19.0455 10.2378 19.4733 10.7426 19.784C11.2478 20.0948 11.6544 20.2368 12 20.2368C12.3456 20.2368 12.7522 20.0948 13.2574 19.784C13.7623 19.4733 14.286 19.0455 14.8732 18.5581C15.1894 18.2956 15.511 18.0344 15.8347 17.7716C15.8435 17.7644 15.8523 17.7573 15.8611 17.7501C17.2612 16.6134 18.6968 15.448 19.8828 14.0418C21.3219 12.3355 22.3256 10.3445 22.3256 7.7615C22.3256 5.23319 20.9689 3.11297 19.1169 2.22157C17.3179 1.35557 14.9005 1.58491 12.6032 4.09828C12.4454 4.27096 12.2276 4.36851 12 4.36851C11.7724 4.36851 11.5546 4.27096 11.3968 4.09828C9.09953 1.58491 6.68212 1.35557 4.883 2.22157ZM12 2.26227C9.41911 -0.169301 6.52907 -0.509453 4.18689 0.617942C1.71317 1.80866 0 4.57352 0 7.7615C0 10.8948 1.23962 13.285 2.86517 15.2126C4.16693 16.7562 5.76025 18.048 7.16743 19.1889C7.48643 19.4476 7.79584 19.6984 8.09015 19.9427C8.66193 20.4174 9.27577 20.9237 9.89785 21.3063C10.5197 21.689 11.2293 22 12 22C12.7707 22 13.4804 21.689 14.1021 21.3063C14.7243 20.9235 15.338 20.4174 15.9099 19.9427C16.2041 19.6984 16.5136 19.4476 16.8325 19.1889C18.2397 18.048 19.8331 16.7562 21.1348 15.2126C22.7604 13.285 24 10.8948 24 7.7615C24 4.57352 22.2868 1.80866 19.8131 0.617942C17.4709 -0.509453 14.5809 -0.169301 12 2.26227Z" fill="#f43f5e"/>
<path d="M4.883 2.22157C3.03111 3.11297 1.67441 5.23319 1.67441 7.7615C1.67441 10.3445 2.6782 12.3355 4.11716 14.0418C5.30313 15.448 6.7388 16.6136 8.13893 17.7501L8.16502 17.7713C8.48876 18.0342 8.81052 18.2955 9.12675 18.5581C9.71395 19.0455 10.2378 19.4733 10.7426 19.784C11.2478 20.0948 11.6544 20.2368 12 20.2368C12.3456 20.2368 12.7522 20.0948 13.2574 19.784C13.7623 19.4733 14.286 19.0455 14.8732 18.5581C15.1894 18.2956 15.511 18.0344 15.8347 17.7716L15.8611 17.7501C17.2612 16.6134 18.6968 15.448 19.8828 14.0418C21.3219 12.3355 22.3256 10.3445 22.3256 7.7615C22.3256 5.23319 20.9689 3.11297 19.1169 2.22157C17.3179 1.35557 14.9005 1.58491 12.6032 4.09828C12.4454 4.27096 12.2276 4.36851 12 4.36851C11.7724 4.36851 11.5546 4.27096 11.3968 4.09828C9.09953 1.58491 6.68212 1.35557 4.883 2.22157Z" fill="#f43f5e"/>
</g>
<defs>
<clipPath id="clip0_31_17917">
<rect width="24" height="22" fill="white"/>
</clipPath>
</defs>
</svg>
