<svg width="24" height="24" viewBox="0 0 24 24" fill="none" xmlns="http://www.w3.org/2000/svg">
<mask id="path-1-inside-1_10_21" fill="white">
<path fill-rule="evenodd" clip-rule="evenodd" d="M23 11.7069C23 17.6202 18.0751 22.4138 12 22.4138C10.2387 22.4138 8.57415 22.0109 7.09822 21.2946L3.63854 22.8954C2.76775 23.2983 1.82806 22.4727 2.06095 21.5094L2.95676 17.8043C1.72303 16.074 1 13.9726 1 11.7069C1 5.79365 5.92487 1 12 1C18.0751 1 23 5.79365 23 11.7069ZM8.93179 13.3855C9.89829 13.3855 10.6818 12.602 10.6818 11.6355C10.6818 10.669 9.89829 9.8855 8.93179 9.8855C7.96529 9.8855 7.18179 10.669 7.18179 11.6355C7.18179 12.602 7.96529 13.3855 8.93179 13.3855ZM15.4318 13.3855C16.3983 13.3855 17.1818 12.602 17.1818 11.6355C17.1818 10.669 16.3983 9.8855 15.4318 9.8855C14.4653 9.8855 13.6818 10.669 13.6818 11.6355C13.6818 12.602 14.4653 13.3855 15.4318 13.3855Z"/>
</mask>
<path fill-rule="evenodd" clip-rule="evenodd" d="M23 11.7069C23 17.6202 18.0751 22.4138 12 22.4138C10.2387 22.4138 8.57415 22.0109 7.09822 21.2946L3.63854 22.8954C2.76775 23.2983 1.82806 22.4727 2.06095 21.5094L2.95676 17.8043C1.72303 16.074 1 13.9726 1 11.7069C1 5.79365 5.92487 1 12 1C18.0751 1 23 5.79365 23 11.7069ZM8.93179 13.3855C9.89829 13.3855 10.6818 12.602 10.6818 11.6355C10.6818 10.669 9.89829 9.8855 8.93179 9.8855C7.96529 9.8855 7.18179 10.669 7.18179 11.6355C7.18179 12.602 7.96529 13.3855 8.93179 13.3855ZM15.4318 13.3855C16.3983 13.3855 17.1818 12.602 17.1818 11.6355C17.1818 10.669 16.3983 9.8855 15.4318 9.8855C14.4653 9.8855 13.6818 10.669 13.6818 11.6355C13.6818 12.602 14.4653 13.3855 15.4318 13.3855Z" fill="currentColor"/>
<path d="M7.09822 21.2946L7.97144 19.4953L7.11866 19.0815L6.25838 19.4795L7.09822 21.2946ZM3.63854 22.8954L4.47837 24.7105L4.47838 24.7105L3.63854 22.8954ZM2.06095 21.5094L4.00494 21.9795L4.00494 21.9795L2.06095 21.5094ZM2.95676 17.8043L4.90075 18.2743L5.11534 17.3867L4.58521 16.6432L2.95676 17.8043ZM12 24.4138C19.1284 24.4138 25 18.7753 25 11.7069H21C21 16.465 17.0218 20.4138 12 20.4138V24.4138ZM6.22499 23.0939C7.96846 23.9401 9.93114 24.4138 12 24.4138V20.4138C10.5463 20.4138 9.17983 20.0818 7.97144 19.4953L6.22499 23.0939ZM4.47838 24.7105L7.93805 23.1098L6.25838 19.4795L2.7987 21.0803L4.47838 24.7105ZM0.116965 21.0394C-0.460507 23.4279 1.90436 25.9015 4.47837 24.7105L2.7987 21.0803C3.1595 20.9133 3.54308 21.0253 3.75587 21.2122C3.96209 21.3934 4.07456 21.6915 4.00494 21.9795L0.116965 21.0394ZM1.01277 17.3343L0.116965 21.0394L4.00494 21.9795L4.90075 18.2743L1.01277 17.3343ZM-1 11.7069C-1 14.4061 -0.136901 16.9104 1.32831 18.9654L4.58521 16.6432C3.58296 15.2375 3 13.5392 3 11.7069H-1ZM12 -1C4.87156 -1 -1 4.63851 -1 11.7069H3C3 6.94879 6.97818 3 12 3V-1ZM25 11.7069C25 4.63851 19.1284 -1 12 -1V3C17.0218 3 21 6.94879 21 11.7069H25ZM8.68179 11.6355C8.68179 11.4974 8.79372 11.3855 8.93179 11.3855V15.3855C11.0029 15.3855 12.6818 13.7066 12.6818 11.6355H8.68179ZM8.93179 11.8855C8.79372 11.8855 8.68179 11.7736 8.68179 11.6355H12.6818C12.6818 9.56443 11.0029 7.8855 8.93179 7.8855V11.8855ZM9.18179 11.6355C9.18179 11.7736 9.06986 11.8855 8.93179 11.8855V7.8855C6.86073 7.8855 5.18179 9.56443 5.18179 11.6355H9.18179ZM8.93179 11.3855C9.06986 11.3855 9.18179 11.4974 9.18179 11.6355H5.18179C5.18179 13.7066 6.86073 15.3855 8.93179 15.3855V11.3855ZM15.1818 11.6355C15.1818 11.4974 15.2937 11.3855 15.4318 11.3855V15.3855C17.5029 15.3855 19.1818 13.7066 19.1818 11.6355H15.1818ZM15.4318 11.8855C15.2937 11.8855 15.1818 11.7736 15.1818 11.6355H19.1818C19.1818 9.56443 17.5029 7.8855 15.4318 7.8855V11.8855ZM15.6818 11.6355C15.6818 11.7736 15.5699 11.8855 15.4318 11.8855V7.8855C13.3607 7.8855 11.6818 9.56443 11.6818 11.6355H15.6818ZM15.4318 11.3855C15.5699 11.3855 15.6818 11.4974 15.6818 11.6355H11.6818C11.6818 13.7066 13.3607 15.3855 15.4318 15.3855V11.3855Z" fill="currentColor" mask="url(#path-1-inside-1_10_21)"/>
</svg>
