<svg width="20" height="22" viewBox="0 0 20 22" fill="none" xmlns="http://www.w3.org/2000/svg">
<path d="M19 18.358C19 16.7513 18.1054 15.2087 16.4833 14.0303C14.8623 12.8527 12.5733 12.0936 10 12.0936C7.42672 12.0936 5.13775 12.8527 3.51667 14.0303C1.89455 15.2087 1 16.7513 1 18.358C1 19.1626 1.21747 19.623 1.50821 19.9267C1.82305 20.2556 2.33917 20.5213 3.14814 20.7031C4.54239 21.0163 6.39978 21.0067 8.6371 20.995C9.07693 20.9927 9.53144 20.9904 10 20.9904C10.4686 20.9904 10.9231 20.9927 11.3629 20.995C13.6002 21.0067 15.4576 21.0163 16.8519 20.7031C17.6608 20.5213 18.1769 20.2556 18.4918 19.9267C18.7825 19.623 19 19.1626 19 18.358Z" fill="currentColor" stroke="currentColor" stroke-width="2"/>
<path d="M13.5 4.53827C13.5 6.50041 11.925 8.07654 10 8.07654C8.07497 8.07654 6.5 6.50041 6.5 4.53827C6.5 2.57614 8.07497 1 10 1C11.925 1 13.5 2.57614 13.5 4.53827Z" fill="currentColor" stroke="currentColor" stroke-width="2"/>
</svg>
